<mxfile host="Electron" agent="Mozilla/5.0 (Macintosh; Intel Mac OS X 10_15_7) AppleWebKit/537.36 (KHTML, like Gecko) draw.io/25.0.2 Chrome/128.0.6613.186 Electron/32.2.5 Safari/537.36" version="25.0.2">
  <diagram name="Page-1" id="TuXpvlqLLIfEy1rivlsN">
    <mxGraphModel dx="1443" dy="964" grid="1" gridSize="10" guides="1" tooltips="1" connect="1" arrows="1" fold="1" page="1" pageScale="1" pageWidth="827" pageHeight="1169" math="0" shadow="0">
      <root>
        <mxCell id="0" />
        <mxCell id="1" parent="0" />
        <mxCell id="RAA1GitBHXpnE13YbcYF-1" value="" style="ellipse;whiteSpace=wrap;html=1;fillColor=#fff2cc;strokeColor=#d6b656;" vertex="1" parent="1">
          <mxGeometry x="60" y="40" width="100" height="160" as="geometry" />
        </mxCell>
        <mxCell id="RAA1GitBHXpnE13YbcYF-2" value="10&lt;div&gt;20&lt;/div&gt;&lt;div&gt;30&lt;/div&gt;&lt;div&gt;40&lt;/div&gt;&lt;div&gt;50&lt;/div&gt;" style="text;html=1;align=center;verticalAlign=middle;whiteSpace=wrap;rounded=0;fontStyle=1;fontSize=20;" vertex="1" parent="1">
          <mxGeometry x="82" y="60" width="56" height="120" as="geometry" />
        </mxCell>
        <mxCell id="RAA1GitBHXpnE13YbcYF-4" value="" style="ellipse;whiteSpace=wrap;html=1;fillColor=#fff2cc;strokeColor=#d6b656;" vertex="1" parent="1">
          <mxGeometry x="190" y="40" width="100" height="160" as="geometry" />
        </mxCell>
        <mxCell id="RAA1GitBHXpnE13YbcYF-5" value="&lt;div&gt;40&lt;/div&gt;&lt;div&gt;50&lt;/div&gt;&lt;div&gt;60&lt;/div&gt;&lt;div&gt;70&lt;/div&gt;&lt;div&gt;80&lt;/div&gt;" style="text;html=1;align=center;verticalAlign=middle;whiteSpace=wrap;rounded=0;fontStyle=1;fontSize=20;" vertex="1" parent="1">
          <mxGeometry x="212" y="60" width="56" height="120" as="geometry" />
        </mxCell>
        <mxCell id="RAA1GitBHXpnE13YbcYF-6" value="s1" style="text;html=1;align=center;verticalAlign=middle;whiteSpace=wrap;rounded=0;fontStyle=1;fontSize=20;" vertex="1" parent="1">
          <mxGeometry x="82" y="210" width="56" height="30" as="geometry" />
        </mxCell>
        <mxCell id="RAA1GitBHXpnE13YbcYF-7" value="s2" style="text;html=1;align=center;verticalAlign=middle;whiteSpace=wrap;rounded=0;fontStyle=1;fontSize=20;" vertex="1" parent="1">
          <mxGeometry x="212" y="210" width="56" height="30" as="geometry" />
        </mxCell>
        <mxCell id="RAA1GitBHXpnE13YbcYF-8" value="" style="ellipse;whiteSpace=wrap;html=1;fillColor=none;strokeColor=#d6b656;" vertex="1" parent="1">
          <mxGeometry x="380" y="30" width="100" height="160" as="geometry" />
        </mxCell>
        <mxCell id="RAA1GitBHXpnE13YbcYF-10" value="" style="ellipse;whiteSpace=wrap;html=1;fillColor=none;strokeColor=#d6b656;" vertex="1" parent="1">
          <mxGeometry x="430" y="30" width="100" height="160" as="geometry" />
        </mxCell>
        <mxCell id="RAA1GitBHXpnE13YbcYF-12" value="s1 intersection s2" style="text;html=1;align=center;verticalAlign=middle;whiteSpace=wrap;rounded=0;fontStyle=1;fontSize=20;" vertex="1" parent="1">
          <mxGeometry x="369" y="210" width="178" height="30" as="geometry" />
        </mxCell>
        <mxCell id="RAA1GitBHXpnE13YbcYF-14" value="40&lt;div&gt;50&lt;/div&gt;" style="text;html=1;align=center;verticalAlign=middle;whiteSpace=wrap;rounded=0;fontStyle=1;fontSize=20;" vertex="1" parent="1">
          <mxGeometry x="430" y="75" width="56" height="70" as="geometry" />
        </mxCell>
        <mxCell id="RAA1GitBHXpnE13YbcYF-17" value="" style="ellipse;whiteSpace=wrap;html=1;fillColor=none;strokeColor=#d6b656;" vertex="1" parent="1">
          <mxGeometry x="621" y="30" width="100" height="160" as="geometry" />
        </mxCell>
        <mxCell id="RAA1GitBHXpnE13YbcYF-18" value="" style="ellipse;whiteSpace=wrap;html=1;fillColor=none;strokeColor=#d6b656;" vertex="1" parent="1">
          <mxGeometry x="671" y="30" width="100" height="160" as="geometry" />
        </mxCell>
        <mxCell id="RAA1GitBHXpnE13YbcYF-19" value="s2 intersection s1" style="text;html=1;align=center;verticalAlign=middle;whiteSpace=wrap;rounded=0;fontStyle=1;fontSize=20;" vertex="1" parent="1">
          <mxGeometry x="610" y="210" width="178" height="30" as="geometry" />
        </mxCell>
        <mxCell id="RAA1GitBHXpnE13YbcYF-20" value="40&lt;div&gt;50&lt;/div&gt;" style="text;html=1;align=center;verticalAlign=middle;whiteSpace=wrap;rounded=0;fontStyle=1;fontSize=20;" vertex="1" parent="1">
          <mxGeometry x="671" y="75" width="56" height="70" as="geometry" />
        </mxCell>
        <mxCell id="RAA1GitBHXpnE13YbcYF-25" value="" style="ellipse;whiteSpace=wrap;html=1;fillColor=none;strokeColor=#d6b656;" vertex="1" parent="1">
          <mxGeometry x="380" y="280" width="100" height="160" as="geometry" />
        </mxCell>
        <mxCell id="RAA1GitBHXpnE13YbcYF-26" value="" style="ellipse;whiteSpace=wrap;html=1;fillColor=none;strokeColor=#d6b656;" vertex="1" parent="1">
          <mxGeometry x="430" y="280" width="100" height="160" as="geometry" />
        </mxCell>
        <mxCell id="RAA1GitBHXpnE13YbcYF-27" value="s1 union s2" style="text;html=1;align=center;verticalAlign=middle;whiteSpace=wrap;rounded=0;fontStyle=1;fontSize=20;" vertex="1" parent="1">
          <mxGeometry x="369" y="460" width="178" height="30" as="geometry" />
        </mxCell>
        <mxCell id="RAA1GitBHXpnE13YbcYF-28" value="40&lt;div&gt;50&lt;/div&gt;" style="text;html=1;align=center;verticalAlign=middle;whiteSpace=wrap;rounded=0;fontStyle=1;fontSize=20;" vertex="1" parent="1">
          <mxGeometry x="430" y="325" width="56" height="70" as="geometry" />
        </mxCell>
        <mxCell id="RAA1GitBHXpnE13YbcYF-29" value="" style="ellipse;whiteSpace=wrap;html=1;fillColor=none;strokeColor=#d6b656;" vertex="1" parent="1">
          <mxGeometry x="621" y="280" width="100" height="160" as="geometry" />
        </mxCell>
        <mxCell id="RAA1GitBHXpnE13YbcYF-30" value="" style="ellipse;whiteSpace=wrap;html=1;fillColor=none;strokeColor=#d6b656;" vertex="1" parent="1">
          <mxGeometry x="671" y="280" width="100" height="160" as="geometry" />
        </mxCell>
        <mxCell id="RAA1GitBHXpnE13YbcYF-31" value="s2 union s1" style="text;html=1;align=center;verticalAlign=middle;whiteSpace=wrap;rounded=0;fontStyle=1;fontSize=20;" vertex="1" parent="1">
          <mxGeometry x="610" y="460" width="178" height="30" as="geometry" />
        </mxCell>
        <mxCell id="RAA1GitBHXpnE13YbcYF-32" value="40&lt;div&gt;50&lt;/div&gt;" style="text;html=1;align=center;verticalAlign=middle;whiteSpace=wrap;rounded=0;fontStyle=1;fontSize=20;" vertex="1" parent="1">
          <mxGeometry x="671" y="325" width="56" height="70" as="geometry" />
        </mxCell>
        <mxCell id="RAA1GitBHXpnE13YbcYF-33" value="10&lt;div&gt;20&lt;/div&gt;&lt;div&gt;30&lt;/div&gt;" style="text;html=1;align=center;verticalAlign=middle;whiteSpace=wrap;rounded=0;fontStyle=1;fontSize=20;" vertex="1" parent="1">
          <mxGeometry x="380" y="300" width="56" height="120" as="geometry" />
        </mxCell>
        <mxCell id="RAA1GitBHXpnE13YbcYF-34" value="60&lt;div&gt;70&lt;/div&gt;&lt;div&gt;80&lt;/div&gt;" style="text;html=1;align=center;verticalAlign=middle;whiteSpace=wrap;rounded=0;fontStyle=1;fontSize=20;" vertex="1" parent="1">
          <mxGeometry x="474" y="300" width="56" height="120" as="geometry" />
        </mxCell>
        <mxCell id="RAA1GitBHXpnE13YbcYF-35" value="10&lt;div&gt;20&lt;/div&gt;&lt;div&gt;30&lt;/div&gt;" style="text;html=1;align=center;verticalAlign=middle;whiteSpace=wrap;rounded=0;fontStyle=1;fontSize=20;" vertex="1" parent="1">
          <mxGeometry x="624" y="300" width="56" height="120" as="geometry" />
        </mxCell>
        <mxCell id="RAA1GitBHXpnE13YbcYF-36" value="60&lt;div&gt;70&lt;/div&gt;&lt;div&gt;80&lt;/div&gt;" style="text;html=1;align=center;verticalAlign=middle;whiteSpace=wrap;rounded=0;fontStyle=1;fontSize=20;" vertex="1" parent="1">
          <mxGeometry x="718" y="300" width="56" height="120" as="geometry" />
        </mxCell>
        <mxCell id="RAA1GitBHXpnE13YbcYF-37" value="" style="ellipse;whiteSpace=wrap;html=1;fillColor=none;strokeColor=#d6b656;" vertex="1" parent="1">
          <mxGeometry x="380" y="520" width="100" height="160" as="geometry" />
        </mxCell>
        <mxCell id="RAA1GitBHXpnE13YbcYF-38" value="" style="ellipse;whiteSpace=wrap;html=1;fillColor=none;strokeColor=#d6b656;" vertex="1" parent="1">
          <mxGeometry x="430" y="520" width="100" height="160" as="geometry" />
        </mxCell>
        <mxCell id="RAA1GitBHXpnE13YbcYF-39" value="s1 - s2" style="text;html=1;align=center;verticalAlign=middle;whiteSpace=wrap;rounded=0;fontStyle=1;fontSize=20;" vertex="1" parent="1">
          <mxGeometry x="369" y="700" width="178" height="30" as="geometry" />
        </mxCell>
        <mxCell id="RAA1GitBHXpnE13YbcYF-41" value="" style="ellipse;whiteSpace=wrap;html=1;fillColor=none;strokeColor=#d6b656;" vertex="1" parent="1">
          <mxGeometry x="621" y="520" width="100" height="160" as="geometry" />
        </mxCell>
        <mxCell id="RAA1GitBHXpnE13YbcYF-42" value="" style="ellipse;whiteSpace=wrap;html=1;fillColor=none;strokeColor=#d6b656;" vertex="1" parent="1">
          <mxGeometry x="671" y="520" width="100" height="160" as="geometry" />
        </mxCell>
        <mxCell id="RAA1GitBHXpnE13YbcYF-43" value="s2 - s1" style="text;html=1;align=center;verticalAlign=middle;whiteSpace=wrap;rounded=0;fontStyle=1;fontSize=20;" vertex="1" parent="1">
          <mxGeometry x="610" y="700" width="178" height="30" as="geometry" />
        </mxCell>
        <mxCell id="RAA1GitBHXpnE13YbcYF-45" value="10&lt;div&gt;20&lt;/div&gt;&lt;div&gt;30&lt;/div&gt;" style="text;html=1;align=center;verticalAlign=middle;whiteSpace=wrap;rounded=0;fontStyle=1;fontSize=20;" vertex="1" parent="1">
          <mxGeometry x="380" y="540" width="56" height="120" as="geometry" />
        </mxCell>
        <mxCell id="RAA1GitBHXpnE13YbcYF-48" value="60&lt;div&gt;70&lt;/div&gt;&lt;div&gt;80&lt;/div&gt;" style="text;html=1;align=center;verticalAlign=middle;whiteSpace=wrap;rounded=0;fontStyle=1;fontSize=20;" vertex="1" parent="1">
          <mxGeometry x="718" y="540" width="56" height="120" as="geometry" />
        </mxCell>
      </root>
    </mxGraphModel>
  </diagram>
</mxfile>
